<svg width="24" height="22" viewBox="0 0 24 22" fill="none" xmlns="http://www.w3.org/2000/svg">
<path d="M22.5933 8.97851C22.9931 8.97851 23.3529 9.13551 23.6327 9.41028C23.9125 9.68505 24.0325 10.0383 23.9925 10.4308C23.7526 13.0607 22.5533 15.5336 20.6344 17.4178C19.9148 18.1636 19.0753 18.7523 18.1958 19.2626V19.6551C18.1958 20.6757 17.3563 21.5 16.3169 21.5H7.68176C6.64235 21.5 5.80283 20.6757 5.80283 19.6551V19.2626C2.52469 17.4178 0.365918 14.1206 0.00612227 10.4308C-0.033855 10.0776 0.126054 9.68505 0.365918 9.41028C0.645759 9.13551 1.00555 8.97851 1.40533 8.97851H22.5933ZM22.2335 13.7673H1.72515C2.6846 15.8084 4.32367 17.5355 6.40249 18.6738C6.52242 18.7523 6.60238 18.8701 6.60238 19.0271V19.6159C6.60238 20.2047 7.08211 20.6757 7.68176 20.6757H16.3169C16.9165 20.6757 17.3962 20.2047 17.3962 19.6159V19.0271C17.3962 18.8701 17.4762 18.7523 17.5961 18.6738C18.5156 18.2028 19.3551 17.5748 20.0747 16.8682C20.9942 15.9654 21.7138 14.9056 22.2335 13.7673ZM22.6333 9.7243H1.40533C1.24542 9.7243 1.08551 9.8028 0.965578 9.92056C0.845646 10.0383 0.805668 10.1953 0.805668 10.3523C0.885623 11.2551 1.08551 12.1579 1.40533 12.9822H22.5933C22.9131 12.1187 23.113 11.2551 23.2329 10.3523C23.2329 10.1953 23.193 10.0383 23.073 9.92056C22.9531 9.8028 22.7932 9.7243 22.6333 9.7243ZM6.08267 0.5C6.32254 0.5 6.48245 0.657009 6.48245 0.892523V5.56355C6.48245 5.79907 6.32254 5.95607 6.08267 5.95607C5.84281 5.95607 5.6829 5.75981 5.6829 5.56355V0.892523C5.6829 0.657009 5.84281 0.5 6.08267 0.5ZM17.916 0.5C18.1558 0.5 18.3157 0.657009 18.3157 0.892523V5.56355C18.3157 5.79907 18.1558 5.95607 17.916 5.95607C17.7161 5.95607 17.5162 5.75981 17.5162 5.56355V0.892523C17.5162 0.657009 17.6761 0.5 17.916 0.5ZM11.9993 0.5C12.2392 0.5 12.3991 0.657009 12.3991 0.892523V5.56355C12.3991 5.79907 12.2392 5.95607 11.9993 5.95607C11.7594 5.95607 11.5995 5.75981 11.5995 5.56355V0.892523C11.5995 0.657009 11.7594 0.5 11.9993 0.5Z" fill="#3A5F56"/>
</svg>
