<svg width="20" height="24" viewBox="0 0 20 24" fill="none" xmlns="http://www.w3.org/2000/svg">
<path d="M12.0299 5.48L13.3697 3.2C13.4509 3.08 13.4509 2.92 13.3697 2.8L11.8675 0.2C11.7863 0.08 11.6645 0 11.5021 0H8.45726C8.29487 0 8.17308 0.08 8.09188 0.2L6.63034 2.8C6.54914 2.92 6.54914 3.08 6.63034 3.2L7.97009 5.48C3.70726 6.4 0.5 10.16 0.5 14.64C0.5 19.8 4.76282 24 10 24C15.2372 24 19.5 19.8 19.5 14.64C19.5 10.16 16.2927 6.4 12.0299 5.48ZM8.74145 0.8H11.2991L12.5577 3L11.2991 5.2H8.74145L7.48291 3L8.74145 0.8ZM10 23.2C5.2094 23.2 1.31197 19.36 1.31197 14.64C1.31197 9.92 5.2094 6.08 10 6.08C14.7906 6.08 18.688 9.92 18.688 14.64C18.688 19.36 14.7906 23.2 10 23.2Z" fill="#3A5F56"/>
</svg>
