<svg width="24" height="16" viewBox="0 0 24 16" fill="none" xmlns="http://www.w3.org/2000/svg">
<path d="M5.08 7.21182C6.4 7.21182 7.68 7.76355 8.6 8.66995C9.04 9.10345 9.4 9.61576 9.64 10.1675C10.24 9.73399 11 9.45813 11.84 9.45813C12.8 9.45813 13.64 9.7734 14.28 10.3251C15.04 8.47291 16.88 7.21182 18.96 7.21182C20.32 7.21182 21.56 7.72414 22.52 8.66995C23.48 9.61576 24 10.8374 24 12.1773V13.9901C24 15.0936 23.08 16 21.96 16H2.04C0.92 16 0 15.0936 0 13.9901V12.335C0 10.9557 0.56 9.61576 1.56 8.63054C2.52 7.72414 3.76 7.17241 5.08 7.21182ZM11.84 10.2069C10.2 10.2069 8.88 11.5074 8.88 13.1232V15.2118H14.8V13.1232C14.8 11.5468 13.48 10.2069 11.84 10.2069ZM5.12 7.96059H5.08C4 7.96059 2.96 8.39409 2.16 9.18227C1.28 10.0493 0.8 11.1921 0.8 12.335V13.9901C0.8 14.6601 1.36 15.2118 2.04 15.2118V15.1724H8.12V13.0837C8.12 12.1773 8.48 11.3103 9.04 10.6798C8.84 10.1281 8.52 9.61576 8.08 9.18227C7.28 8.39409 6.24 7.96059 5.12 7.96059ZM18.92 8C17.04 8 15.4 9.18227 14.88 10.9557C15.32 11.5468 15.6 12.2956 15.6 13.1232V15.2118H21.96C22.64 15.2118 23.2 14.6601 23.2 13.9901H23.16V12.1773C23.16 11.0739 22.72 10.0099 21.92 9.22167C21.12 8.4335 20.04 8 18.92 8ZM11.88 3.9803C13.04 3.9803 13.96 4.8867 13.96 6.02956C13.96 7.17241 13.04 8.07882 11.88 8.07882C10.72 8.07882 9.8 7.17241 9.8 6.02956C9.8 4.8867 10.72 3.9803 11.88 3.9803ZM11.88 4.80788C11.16 4.80788 10.6 5.35961 10.6 6.06897C10.6 6.77833 11.16 7.33005 11.88 7.33005C12.6 7.33005 13.16 6.77833 13.16 6.06897C13.16 5.35961 12.6 4.80788 11.88 4.80788ZM5.04 0C6.6 0 7.88 1.26108 7.88 2.79803C7.88 4.33498 6.6 5.59606 5.04 5.59606C3.48 5.59606 2.2 4.33498 2.2 2.79803C2.2 1.26108 3.48 0 5.04 0ZM18.96 0C20.52 0 21.8 1.26108 21.8 2.79803C21.8 4.33498 20.52 5.59606 18.96 5.59606C17.4 5.59606 16.12 4.33498 16.12 2.79803C16.12 1.26108 17.4 0 18.96 0ZM5.04 0.788177C3.92 0.788177 3 1.69458 3 2.79803C3 3.90148 3.92 4.80788 5.04 4.80788C6.16 4.80788 7.08 3.90148 7.08 2.79803C7.08 1.69458 6.16 0.788177 5.04 0.788177ZM18.96 0.788177C17.84 0.788177 16.92 1.69458 16.92 2.79803C16.92 3.90148 17.84 4.80788 18.96 4.80788C20.08 4.80788 21 3.90148 21 2.79803C21 1.69458 20.08 0.788177 18.96 0.788177Z" fill="#3A5F56"/>
</svg>
