<svg width="24" height="22" viewBox="0 0 24 22" fill="none" xmlns="http://www.w3.org/2000/svg">
<path d="M12 0.5C18.08 0.5 23.24 4 24 8.60112V8.79775C24 8.83708 23.96 8.83708 23.96 8.8764C23.92 8.8764 23.92 8.91573 23.92 8.95506C23.92 8.95506 23.92 8.99438 23.88 8.99438C23.84 8.99438 23.84 9.03371 23.8 9.03371C23.76 9.07303 23.76 9.07303 23.72 9.07303H20.96V20.7135H21.76C22 20.7135 22.16 20.8708 22.16 21.1067C22.16 21.3427 22 21.5 21.76 21.5H14.96C14.72 21.5 14.56 21.3427 14.56 21.1067C14.56 20.8708 14.72 20.7135 14.96 20.7135H15.92V9.07303H8.2V20.6742H9.08C9.32 20.6742 9.48 20.8315 9.48 21.0674C9.48 21.3034 9.32 21.4607 9.08 21.4607H2.28C2.04 21.4607 1.88 21.3034 1.88 21.0674C1.88 20.8315 2.04 20.6742 2.28 20.6742H3.16V9.03371H0.2C0.16 9.03371 0.12 8.99438 0.12 8.99438L0.10963 8.98419L0.08 8.95506C0.08 8.91573 0.04 8.91573 0.04 8.8764C0 8.83708 0 8.83708 0 8.79775V8.60112C0.76 4 5.92 0.5 12 0.5ZM7.4 9.07303H4V20.7135H7.4V9.07303ZM20.12 9.07303H16.72V20.7135H20.12V9.07303ZM12 1.28652C6.52 1.28652 1.84 4.27528 0.88 8.28652H23.12C22.16 4.27528 17.48 1.28652 12 1.28652ZM14.32 5.10112C14.56 5.10112 14.72 5.25843 14.72 5.49438C14.72 5.73034 14.56 5.88764 14.32 5.88764H9.72C9.48 5.88764 9.32 5.73034 9.32 5.49438C9.32 5.25843 9.48 5.10112 9.72 5.10112H14.32Z" fill="#3A5F56"/>
</svg>
